<svg xmlns="http://www.w3.org/2000/svg" width="3397" height="629" viewBox="0 0 3397 629" fill="none"><script xmlns=""/>
    <path d="M998.2 435H956.2V247.4H1114.96V285.2H998.2V327.48H1110.76V365H998.2V435ZM1174.84 435H1132.84V247.4H1174.84V435ZM1271.59 437.8C1223.71 437.8 1191.51 409.24 1191.51 365C1191.51 320.2 1223.71 291.92 1271.59 291.92C1319.47 291.92 1351.67 320.2 1351.67 365C1351.67 409.24 1319.47 437.8 1271.59 437.8ZM1271.59 400.56C1299.87 400.56 1309.95 389.64 1309.95 365C1309.95 340.36 1299.87 328.88 1271.59 328.88C1243.03 328.88 1233.23 340.36 1233.23 365C1233.23 389.64 1243.03 400.56 1271.59 400.56ZM1448.34 435H1395.98L1357.62 294.72H1401.02L1417.54 358.84L1423.42 402.52H1426.22L1437.42 354.64L1458.7 294.72H1512.74L1533.74 354.64L1544.94 402.52H1547.74L1553.9 358.84L1570.14 294.72H1612.98L1573.22 435H1520.86L1496.78 367.52L1486.42 328.88H1483.34L1472.7 367.52L1448.34 435ZM1666.49 435H1611.61L1684.69 342.32V339.24L1611.61 247.4H1666.49L1719.13 314.32H1722.21L1772.89 247.4H1827.77L1754.97 340.08V343.16L1827.77 435H1772.89L1720.53 367.24H1717.45L1666.49 435ZM1888.73 435H1834.69V386H1888.73V435ZM1961.51 435H1919.51V329.44H1899.63V294.72H1920.35C1924.83 266.44 1949.47 247.4 1992.59 247.4H2004.91V277.92H1985.87C1967.39 277.92 1958.71 281 1959.83 294.72H2004.91V329.44H1961.51V435ZM2060.91 280.44H2018.91V247.4H2060.91V280.44ZM2060.91 435H2018.91V294.72H2060.91V435ZM2125.04 435H2083.04V294.72H2121.96V337.84H2124.48C2128.12 314.32 2144.92 291.92 2181.6 291.92C2219.96 291.92 2238.16 316.56 2238.16 347.64V435H2196.16V361.64C2196.16 339.24 2186.92 329.72 2161.16 329.72C2134.56 329.72 2125.04 340.36 2125.04 364.16V435ZM2302.52 437.8C2272.28 437.8 2254.08 423.8 2254.08 400.28C2254.08 379.56 2269.48 366.68 2299.44 363.6L2359.64 357.44V352.12C2359.64 333.92 2351.52 328.88 2329.12 328.88C2307.84 328.88 2299.16 334.48 2299.16 350.44V351.56H2256.88V350.72C2256.88 316 2286 291.92 2332.2 291.92C2378.96 291.92 2401.08 316 2401.08 352.68V435H2361.88V402.8H2359.64C2353.2 424.64 2333.6 437.8 2302.52 437.8ZM2296.36 397.48C2296.36 405.04 2302.24 408.12 2314.56 408.12C2343.12 408.12 2358.52 401.4 2359.64 381.52L2310.92 387.12C2300.84 387.96 2296.36 390.76 2296.36 397.48ZM2464.37 435H2422.37V294.72H2461.29V337.84H2463.81C2467.45 314.32 2484.25 291.92 2520.93 291.92C2559.29 291.92 2577.49 316.56 2577.49 347.64V435H2535.49V361.64C2535.49 339.24 2526.25 329.72 2500.49 329.72C2473.89 329.72 2464.37 340.36 2464.37 364.16V435ZM2673.5 437.8C2625.34 437.8 2594.54 409.24 2594.54 365C2594.54 320.2 2625.34 291.92 2673.5 291.92C2718.58 291.92 2749.38 316 2749.38 352.4V356.32H2707.66V354.08C2707.66 336.16 2694.5 329.72 2672.66 329.72C2647.74 329.72 2636.26 338.96 2636.26 365C2636.26 390.76 2647.74 400 2672.66 400C2694.5 400 2707.66 393.56 2707.66 375.64V373.4H2749.38V377.32C2749.38 413.44 2718.58 437.8 2673.5 437.8ZM2841.93 437.8C2795.17 437.8 2763.25 414.84 2763.25 365C2763.25 320.2 2794.89 291.92 2841.09 291.92C2887.01 291.92 2917.53 316 2917.53 359.96C2917.53 365 2916.97 368.64 2916.41 373.4H2802.17C2803.29 394.96 2813.37 404.2 2840.53 404.2C2865.45 404.2 2874.13 397.76 2874.13 385.72V382.92H2916.13V386C2916.13 416.52 2886.45 437.8 2841.93 437.8ZM2840.25 324.68C2815.33 324.68 2804.69 333.08 2802.73 351.28H2877.21C2876.09 332.8 2864.89 324.68 2840.25 324.68Z" fill="#1E1E1E"/>
    <g clip-path="url(#clip0_59_205)">
        <path d="M750.987 322.326H812.746C821.968 322.326 822.792 323.15 820.486 332.38C815.875 350.18 812.746 368.31 801.217 383.638C790.677 397.813 777.667 405.559 759.386 405.065C733.2 405.23 705.203 405.23 678.687 404.57C640.808 402.922 622.034 426.162 611.329 453.027C608.529 459.95 607.212 467.202 604.412 474.124C595.848 495.715 583.496 505.11 558.463 505.934C533.759 506.758 507.409 505.769 481.882 505.934C472.33 505.934 470.847 504.616 473.153 495.715C476.776 481.706 479.905 467.366 484.846 453.686C492.916 431.271 504.609 423.689 528.325 423.525C546.77 423.36 565.051 423.03 583.496 423.36C604.576 423.689 620.881 414.789 631.915 397.483C637.844 388.089 641.632 377.375 646.079 367.157C648.22 362.377 649.208 357.103 651.184 352.323C660.736 329.743 672.264 322.161 696.639 322.326C714.755 322.326 732.871 322.326 750.987 322.326Z" fill="#1E1E1E"/>
        <path d="M750.822 256.728C739.293 256.728 727.765 256.728 716.237 256.728C680.663 256.728 657.277 274.693 647.396 308.811C644.925 317.381 641.632 326.117 637.02 333.698C627.633 349.356 613.634 357.597 594.695 357.432C569.497 357.103 544.135 357.267 518.937 357.432C511.855 357.432 509.385 355.454 511.526 348.202C515.808 333.698 518.772 318.865 523.713 304.69C531.124 283.758 543.146 275.682 565.38 275.188C580.531 274.858 595.518 275.352 610.67 275.023C618.904 274.858 627.139 274.693 635.209 273.045C652.172 269.584 665.841 260.848 673.582 244.861C680.169 231.346 686.428 217.501 692.027 203.491C700.262 182.395 715.413 172.67 737.646 172.835C775.855 173 813.898 172.835 852.107 172.835C857.212 172.835 862.647 173.33 860.671 180.087C854.742 199.371 851.613 219.808 837.12 235.631C824.603 249.311 809.287 256.563 790.512 256.563C777.172 256.728 763.997 256.728 750.822 256.728Z" fill="#1E1E1E"/>
        <path d="M650.525 176.461V176.296V176.132C650.525 174.483 649.043 173 647.231 173C646.902 173 646.408 173 646.078 173C645.42 173 644.761 173 643.937 173C643.114 173 642.455 173 641.632 173C622.363 173 604.247 173 586.131 173.165C580.367 173.165 575.426 174.813 571.144 177.45C564.721 180.911 560.274 187.174 557.804 195.745C556.486 199.865 555.334 204.151 554.181 208.601C552.534 214.37 550.887 220.303 549.24 226.072C548.911 226.896 548.911 227.72 548.911 228.379V228.544V228.709C548.911 230.357 550.393 231.84 552.204 231.84C552.534 231.84 553.028 231.84 553.357 231.84C554.016 231.84 554.675 231.84 555.498 231.84C556.322 231.84 556.98 231.84 557.804 231.84C577.237 231.84 595.353 232.005 613.469 231.84C619.234 231.84 624.174 230.192 628.456 227.555C634.879 224.094 639.326 217.831 641.796 209.26C643.114 205.14 644.267 200.854 645.42 196.404C647.066 190.636 648.713 184.702 650.36 178.933C650.525 177.945 650.525 177.12 650.525 176.461Z" fill="#1890FF"/>
    </g>
    <defs>
        <clipPath id="clip0_59_205">
            <rect width="389" height="333.429" fill="white" transform="translate(472 173)"/>
        </clipPath>
    </defs>
</svg>
